<svg width="50" height="50" viewBox="0 0 50 50" fill="none" xmlns="http://www.w3.org/2000/svg">
<rect width="50" height="50" rx="25" fill="#FF5A60"/>
<path d="M36.4369 21.25H33.6305L32.8505 19.3C32.0489 17.2952 30.1359 16 27.9764 16H22.0233C19.8642 16 17.9508 17.2952 17.1487 19.3L16.3687 21.25H13.5628C13.1967 21.25 12.9281 21.5941 13.0172 21.9489L13.2984 23.0739C13.3608 23.3242 13.5858 23.5 13.844 23.5H14.7848C14.1553 24.0498 13.7498 24.8491 13.7498 25.75V28C13.7498 28.7556 14.0386 29.4377 14.4998 29.9655V32.5C14.4998 33.3283 15.1716 34 15.9998 34H17.4998C18.3281 34 18.9998 33.3283 18.9998 32.5V31H30.9999V32.5C30.9999 33.3283 31.6716 34 32.4999 34H33.9999C34.8281 34 35.4999 33.3283 35.4999 32.5V29.9655C35.9611 29.4381 36.2499 28.7561 36.2499 28V25.75C36.2499 24.8491 35.8444 24.0498 35.2153 23.5H36.1561C36.4144 23.5 36.6394 23.3242 36.7017 23.0739L36.983 21.9489C37.0716 21.5941 36.803 21.25 36.4369 21.25ZM19.9341 20.4142C20.2758 19.5602 21.1031 19 22.0233 19H27.9764C28.8966 19 29.7239 19.5602 30.0656 20.4142L30.9999 22.75H18.9998L19.9341 20.4142ZM17.4998 27.9906C16.5998 27.9906 15.9998 27.3925 15.9998 26.4953C15.9998 25.5981 16.5998 25 17.4998 25C18.3998 25 19.7498 26.3458 19.7498 27.243C19.7498 28.1402 18.3998 27.9906 17.4998 27.9906ZM32.4999 27.9906C31.5999 27.9906 30.2499 28.1402 30.2499 27.243C30.2499 26.3458 31.5999 25 32.4999 25C33.3999 25 33.9999 25.5981 33.9999 26.4953C33.9999 27.3925 33.3999 27.9906 32.4999 27.9906V27.9906Z" fill="white"/>
</svg>
